<?xml version="1.0" encoding="utf-8"?>
<!-- Generator: Adobe Illustrator 25.2.1, SVG Export Plug-In . SVG Version: 6.00 Build 0)  -->
<svg version="1.1" id="Layer_1" xmlns="http://www.w3.org/2000/svg" xmlns:xlink="http://www.w3.org/1999/xlink" x="0px" y="0px"
	 viewBox="0 0 500 500" style="enable-background:new 0 0 500 500;" xml:space="preserve">
<style type="text/css">
	.st0{fill:#1E9E92;stroke:#1E9E92;stroke-width:10;stroke-miterlimit:10;}
	.st1{fill:#1E9E92;}
	.st2{fill:#34B8AF;}
	.st3{fill:#462F63;}
</style>
<g id="not-circle">
	<path class="st0" d="M427.6,101.47c-1.01-1.21-2.06-2.39-3.1-3.57c-6.93-7.94-14.39-15.4-22.33-22.33
		c-1.19-1.04-2.37-2.08-3.57-3.1c-40.17-33.65-91.87-53.95-148.24-53.95c-127.48,0-231.2,103.72-231.2,231.2
		c0,56.37,20.3,108.07,53.95,148.24c1.01,1.21,2.06,2.39,3.1,3.58c6.93,7.94,14.39,15.4,22.33,22.33c1.19,1.04,2.37,2.08,3.58,3.1
		c40.17,33.65,91.87,53.95,148.24,53.95c127.48,0,231.2-103.72,231.2-231.2C481.56,193.33,461.25,141.63,427.6,101.47z
		 M250.36,458.76c-50.26,0-96.44-17.84-132.53-47.51c-1.22-1-2.39-2.05-3.59-3.08c-7.99-6.88-15.46-14.34-22.33-22.33
		c-1.03-1.2-2.08-2.37-3.08-3.59c-29.67-36.1-47.51-82.27-47.51-132.53c0-115.27,93.78-209.05,209.05-209.05
		c50.26,0,96.44,17.84,132.54,47.51c1.22,1,2.39,2.05,3.59,3.08c7.99,6.88,15.46,14.34,22.33,22.33c1.03,1.2,2.08,2.37,3.08,3.59
		c29.67,36.1,47.51,82.27,47.51,132.54C459.41,364.98,365.63,458.76,250.36,458.76z"/>
</g>
<g id="virus">
	<g>
		<polygon class="st1" points="207.1,131.14 182.98,120.67 185.27,101.77 214,105.26 		"/>
		<path class="st2" d="M177.32,113.66c-15.71,0.01-28.45-12.71-28.46-28.41c-0.01-15.71,12.71-28.45,28.41-28.46
			c15.71-0.01,28.45,12.71,28.46,28.41c0,1.16-0.07,2.31-0.21,3.46C203.67,102.86,191.64,113.53,177.32,113.66z"/>
		<path class="st3" d="M237.57,131.64c-1.05-2.9-4.08-4.6-7.1-3.97c-1.31-0.98-6.19-5.91-13.69-28.39
			c-1.91-5.71-3.57-11.34-4.88-16.03c-0.96-16.76-13.79-30.42-30.45-32.43c-1.39-0.17-2.8-0.26-4.2-0.26l0,0
			c-19.15-0.1-34.75,15.34-34.85,34.49c-0.09,17.13,12.34,31.76,29.26,34.43c2.01,1.28,4.11,2.66,6.23,4.11
			c15.57,10.66,18.38,15.63,18.86,16.86c-0.99,3.3,0.89,6.78,4.19,7.77c2.96,0.89,6.12-0.52,7.43-3.32
			c2.27-4.94,0.43-10.65-5.48-16.98c-3.8-3.89-7.93-7.44-12.35-10.61c6.08-2.53,11.32-6.73,15.1-12.11
			c8.72,25.5,15.13,31.43,19.24,33.64c1.64,0.92,3.5,1.41,5.38,1.43c1.23,0,2.45-0.22,3.6-0.65
			C237.09,138.44,238.75,134.87,237.57,131.64z M199.33,87.88c-1.35,11.13-10.78,19.51-21.99,19.53c-0.44,0-0.9-0.01-1.36-0.04
			c-6.28-3.92-11.04-6.6-11.35-6.75c-1.2-0.67-2.58-0.93-3.94-0.73c-8.12-9.19-7.24-23.22,1.95-31.33
			c9.19-8.12,23.22-7.24,31.33,1.95c1.07,1.22,2.01,2.55,2.8,3.97c0.21,0.86,1.19,4.92,2.75,10.62
			C199.51,86.02,199.45,86.95,199.33,87.88z"/>
		<path class="st1" d="M181.79,63.49c6.17,10.6,2.57,24.19-8.03,30.36c-4.18,2.43-9.04,3.43-13.84,2.85
			c-0.62-0.07-1.22-0.18-1.82-0.3c6.17,10.59,19.76,14.18,30.36,8.01c10.59-6.17,14.18-19.76,8.01-30.36
			C193.3,68.61,187.96,64.77,181.79,63.49L181.79,63.49z"/>
		<polygon class="st1" points="145.24,285.03 96.48,294.52 94.94,268.96 141.6,266.35 		"/>
		<path class="st2" d="M74.53,317.27c-15.71-0.01-28.43-12.75-28.42-28.46c0.01-15.71,12.75-28.43,28.46-28.42
			c15.71,0.01,28.43,12.75,28.42,28.46c0,5.61-1.67,11.1-4.78,15.77C92.94,312.54,84.05,317.3,74.53,317.27z"/>
		<path class="st3" d="M143.15,255.95c-3.07-0.36-5.94,1.57-6.75,4.55c-1.47,0.73-8.06,2.87-31.52-0.59
			c-5.95-0.87-11.73-1.93-16.49-2.87c-4.36-1.9-9.06-2.88-13.82-2.88l0,0c-19.15-0.01-34.68,15.5-34.69,34.65
			s15.5,34.68,34.65,34.69c11.07,0.01,21.48-5.27,28.02-14.22c2.07-1.23,4.3-2.51,6.6-3.76c16.48-9.05,22.18-9.32,23.46-9.21
			c2.48,2.39,6.42,2.32,8.81-0.16c2.17-2.25,2.34-5.75,0.4-8.2c-3.39-4.26-9.32-5.19-17.6-2.77c-5.19,1.64-10.23,3.73-15.05,6.25
			c0.48-6.54-0.9-13.09-3.96-18.89c6.96,1.05,13.98,1.62,21.01,1.72c10.64,0,15.13-1.96,17.69-3.74c2.63-1.73,4.37-4.53,4.75-7.66
			c0.41-3.42-2.04-6.52-5.45-6.92C143.18,255.95,143.16,255.95,143.15,255.95z M62.22,307.27c-10.2-6.8-12.95-20.59-6.15-30.79
			c3.97-5.94,10.55-9.62,17.69-9.87c0.89,0.21,4.93,1.16,10.68,2.32c0.84,0.41,1.64,0.88,2.42,1.39
			c9.77,6.51,12.78,19.51,6.85,29.65c-6.33,3.83-10.85,6.89-11.14,7.08c-1.13,0.77-1.98,1.9-2.41,3.2
			c-1.84,0.48-3.74,0.73-5.65,0.73c-4.38,0.01-8.66-1.28-12.31-3.71v0H62.22z"/>
		<path class="st1" d="M57.17,275.02c12.24-0.72,22.75,8.61,23.47,20.85c0.29,4.82-1.01,9.59-3.68,13.61
			c-0.34,0.52-0.73,1.01-1.09,1.47c12.24-0.73,21.57-11.24,20.84-23.48c-0.73-12.24-11.24-21.57-23.48-20.84
			c-6.3,0.37-12.13,3.41-16.06,8.35L57.17,275.02z"/>
		
			<rect x="398.28" y="234.23" transform="matrix(0.9816 -0.191 0.191 0.9816 -38.4336 84.099)" class="st1" width="37.53" height="14.38"/>
		<path class="st2" d="M450.61,258.16c-12.71,0-23.01-10.29-23.01-23s10.29-23.01,23-23.01s23.01,10.29,23.01,23
			c0,4.54-1.34,8.97-3.85,12.75C465.5,254.32,458.31,258.17,450.61,258.16z"/>
		<path class="st3" d="M479.29,229.43c-2.72-13.67-14.71-23.52-28.65-23.52l0,0c-9.78-0.01-18.92,4.87-24.34,13.01
			c-0.3,0.46-0.59,0.92-0.87,1.39c-8.06,4.52-15.14,7.61-18.05,7.68c-2.67-2.17-6.6-1.76-8.77,0.91c-1.87,2.3-1.85,5.6,0.03,7.88
			c2.09,2.63,4.98,3.67,8.34,3.67c4.28,0,9.32-1.72,14.43-4.06c0.13,3.07,0.75,6.1,1.83,8.98c-16.94-1.92-22.73,0.19-25.84,2.35
			c-2.33,1.57-3.88,4.07-4.23,6.85c-0.39,3.42,2.06,6.52,5.49,6.91c2.75,0.32,5.38-1.22,6.46-3.76c1.67-0.52,7.33-1.47,23.14,0.89
			c2.2,0.34,4.4,0.73,6.5,1.08c13.55,8.77,31.64,4.9,40.41-8.65C479.3,244.66,480.78,236.9,479.29,229.43L479.29,229.43z
			 M464.57,244.47c-2.44,3.67-6.23,6.22-10.55,7.1c-0.69-0.53-1.48-0.91-2.32-1.11c-0.29-0.07-5.19-1.24-11.93-2.51
			c-5.42-4.6-7.35-12.11-4.83-18.75c5.87-3.45,10.21-6.41,10.46-6.6c1.38-0.93,2.33-2.38,2.62-4.02c0.86-0.13,1.74-0.2,2.61-0.21
			c9.26,0.01,16.76,7.53,16.75,16.8c0,3.31-0.99,6.54-2.82,9.29L464.57,244.47z"/>
		<path class="st1" d="M463.74,245.59c-9.25,0.54-17.19-6.52-17.73-15.77c-0.21-3.64,0.76-7.25,2.79-10.28
			c0.26-0.39,0.54-0.73,0.83-1.12c-9.25,0.54-16.3,8.48-15.76,17.73c0.54,9.25,8.48,16.3,17.73,15.76
			C456.36,251.62,460.77,249.33,463.74,245.59z"/>
		
			<rect x="219.17" y="384.47" transform="matrix(0.278 -0.9606 0.9606 0.278 -203.1659 515.7767)" class="st1" width="44.71" height="17.13"/>
		<path class="st1" d="M253.34,418.38c-7.28-11.77-22.73-15.42-34.5-8.14s-15.42,22.73-8.14,34.5s22.73,15.42,34.5,8.14l0,0
			c11.75-7.17,15.46-22.51,8.28-34.26C253.44,418.54,253.39,418.46,253.34,418.38z"/>
		<path class="st3" d="M258.64,415.1c-0.1-0.15-0.2-0.29-0.29-0.43c-0.11-1.12-0.21-2.27-0.3-3.42
			c-1.15-14.94,0.32-19.79,0.89-21.08c3.17-1.35,4.64-5.01,3.29-8.18c-1.23-2.88-4.41-4.4-7.42-3.55
			c-8.34,2.07-9.88,12.95-9.63,24.68c-3.96-1.82-8.25-2.79-12.6-2.87c10.83-17.52,11.46-24.59,10.69-28.8
			c-0.47-2.9-2.17-5.45-4.67-7c-2.93-1.8-6.77-0.88-8.57,2.05c-1.53,2.49-1.12,5.71,0.98,7.74c-0.12,1.74-1.41,7.85-11.68,23.63
			c-1.9,2.93-3.83,5.76-5.63,8.3c-14,10.13-17.15,29.69-7.02,43.69c10.13,14,29.69,17.15,43.69,7.02
			c13.29-9.61,16.91-27.86,8.28-41.81L258.64,415.1z M241.93,447.58c-8.85,5.47-20.45,2.73-25.92-6.12
			c-2.8-4.53-3.55-10.03-2.07-15.14c0.51-0.35,0.96-0.78,1.35-1.26c0.2-0.25,3.23-4.13,7.23-9.73c7.84-4.62,17.86-2.94,23.78,3.97
			c0.73,7.04,1.66,12.35,1.72,12.68c0.26,1.54,1.1,2.93,2.34,3.89C249.23,440.74,246.19,444.96,241.93,447.58z"/>
		<path class="st2" d="M215.24,440.1c3.75-9.7,14.66-14.52,24.36-10.77c3.82,1.48,7.06,4.17,9.21,7.65
			c0.28,0.45,0.53,0.91,0.73,1.37c3.75-9.7-1.07-20.6-10.77-24.35s-20.6,1.07-24.35,10.77c-1.93,4.99-1.65,10.56,0.78,15.33
			L215.24,440.1L215.24,440.1z"/>
		<path class="st2" d="M283.22,114.18c-5.44-0.66-10.91-0.99-16.39-1c-67.94,0-125.36,50.93-133.55,118.48
			c-8.95,73.72,43.78,140.99,117.48,149.94c5.44,0.66,10.91,0.99,16.39,1c67.94,0,125.36-50.94,133.55-118.48
			C409.65,190.39,356.94,123.12,283.22,114.18z"/>
		<path class="st3" d="M402.5,209.07c-15.58-54.47-62.29-94.3-118.53-101.08c-5.69-0.69-11.41-1.04-17.14-1.04v12.46
			c70.95-0.09,128.54,57.35,128.63,128.3c0.09,70.95-57.35,128.54-128.3,128.63s-128.54-57.35-128.63-128.3
			c-0.01-5.23,0.31-10.45,0.93-15.63c8.32-64.17,62.67-112.38,127.37-113l0,0v-12.46c-71.11,0-131.16,53.29-139.74,123.96
			c-9.43,77.2,45.5,147.43,122.7,156.86c0.07,0.01,0.15,0.02,0.22,0.03c5.69,0.69,11.42,1.04,17.15,1.04
			c71.11,0,131.16-53.29,139.73-123.96C409.19,246.17,407.7,227.19,402.5,209.07z"/>
		<path class="st1" d="M347.26,147.59c29.8,64.39,1.75,140.75-62.64,170.55c-44.21,20.46-96.2,14.15-134.23-16.29
			c29.8,64.39,106.16,92.44,170.55,62.64c64.39-29.8,92.44-106.16,62.64-170.55C375.22,175.88,362.79,160.02,347.26,147.59
			L347.26,147.59z"/>
		<path class="st2" d="M316.2,417.3c-15.71,0.02-28.45-12.7-28.47-28.41s12.7-28.45,28.41-28.47c1.16,0,2.31,0.07,3.46,0.21
			c15.59,1.88,26.71,16.05,24.82,31.64C342.7,406.55,330.58,417.29,316.2,417.3z"/>
		<path class="st3" d="M343.47,367.47c-1.27-1.61-2.67-3.11-4.19-4.47c-0.1-0.55-0.28-1.08-0.52-1.58
			c-3.67-7.45-5.36-16.59-3.42-18.12c2.71-2.12,3.19-6.04,1.07-8.76c-2.12-2.71-6.04-3.19-8.76-1.07l0,0
			c-6.5,5.13-6.23,14-4.44,21.43c-0.94-0.19-1.89-0.35-2.85-0.47c-1.4-0.17-2.8-0.26-4.21-0.26l0,0c-9.85,0-19.23,4.21-25.78,11.55
			c-2.93-6.93-7.65-13.98-14.71-14.83c-3.42-0.35-6.48,2.14-6.84,5.56c-0.34,3.31,1.98,6.3,5.27,6.8c2.3,0.89,6.25,9.53,7.98,17.51
			c0.06,0.25,0.13,0.49,0.22,0.73c-0.22,1.03-0.4,2.07-0.53,3.14c-2.31,19.01,11.23,36.29,30.24,38.59c1.39,0.17,2.8,0.26,4.2,0.26
			c19.15-0.03,34.65-15.57,34.62-34.72C350.81,381.06,348.22,373.56,343.47,367.47z M338.22,391.53
			c-1.35,11.13-10.79,19.5-21.99,19.53c-0.9,0-1.81-0.06-2.71-0.17c-12.17-1.51-20.82-12.6-19.31-24.77
			c1.37-11.09,10.78-19.43,21.95-19.48c0.9,0,1.81,0.05,2.71,0.16C331.04,368.31,339.7,379.37,338.22,391.53L338.22,391.53z"/>
		<path class="st3" d="M429.24,279.63c-5.65-7.26-13.97-11.95-23.11-13.04c-1.4-0.17-2.8-0.25-4.21-0.25l0,0
			c-1.82,0-3.65,0.15-5.45,0.44c-6.74-2.89-14.71-8.11-15.09-12.32c-0.27-3.43-3.28-5.99-6.71-5.72s-5.99,3.28-5.72,6.71
			c0,0.04,0.01,0.09,0.01,0.13c0.69,7.58,6.6,13.36,12.62,17.37c-7.81,5.65-12.91,14.3-14.08,23.86c-0.26,2.13-0.32,4.29-0.18,6.43
			c-5.48-2.62-11.6-4.1-16.44-0.79c-2.83,1.96-3.53,5.84-1.58,8.67c1.83,2.64,5.37,3.46,8.17,1.89h0.07
			c2.93,0,11.06,4.82,18.19,10.7c5.61,6.52,13.46,10.7,21.99,11.73c1.4,0.17,2.8,0.26,4.21,0.26c19.15,0.01,34.68-15.5,34.69-34.64
			C436.64,293.29,434.04,285.74,429.24,279.63z M423.99,303.69c-1.35,11.13-10.78,19.5-21.99,19.53c-0.9,0-1.81-0.06-2.71-0.17
			c-4.56-0.55-8.85-2.5-12.24-5.6c-0.34-0.62-0.79-1.17-1.33-1.63c-0.06-0.05-0.43-0.38-1.06-0.91c-7.68-9.55-6.17-23.52,3.38-31.2
			c2.25-1.81,4.84-3.17,7.62-3.99c0.42,0.09,0.85,0.14,1.28,0.14c1.19,0,2.35-0.35,3.34-1c0.56-0.04,1.12-0.07,1.69-0.07
			c0.9,0,1.81,0.05,2.71,0.16c12.15,1.52,20.78,12.58,19.29,24.74L423.99,303.69L423.99,303.69z"/>
		<path class="st3" d="M325.09,109.56c2.7-22.48-13.3-42.9-35.77-45.65c-1.65-0.2-3.31-0.3-4.98-0.3l0,0
			c-22.63,0.01-40.98,18.36-40.97,40.99c0,7.6,2.12,15.06,6.12,21.53c3.02,11.29,2.04,15.04,1.75,15.78
			c-2.79,2.02-3.41,5.91-1.39,8.7c1.91,2.64,5.53,3.36,8.31,1.66c4.11-2.54,5.67-7.02,5.91-12.02c4.74,2.71,9.97,4.44,15.4,5.09
			c1.65,0.2,3.31,0.3,4.98,0.3c3.27,0,6.52-0.39,9.7-1.17c-2.11,6.3-3.18,13.07-1.52,19.06c0.92,3.32,4.35,5.26,7.67,4.35
			c3.32-0.92,5.26-4.35,4.35-7.67c-1.85-6.66,3.31-18.09,8.31-26.14C319.68,127.53,323.97,118.88,325.09,109.56z M284.41,133.17
			c-1.16,0-2.32-0.07-3.48-0.21c-8.04-0.96-15.29-5.31-19.93-11.94c-2.09-7.33-4.5-13.35-4.62-13.64c-0.14-0.33-0.3-0.66-0.5-0.96
			c-0.11-1.74-0.06-3.49,0.15-5.23c1.76-14.31,13.89-25.07,28.31-25.11c1.16,0,2.32,0.07,3.48,0.21
			c15.67,1.92,26.82,16.19,24.89,31.86c-0.53,4.29-2.02,8.41-4.37,12.04c-0.94,0.43-1.76,1.1-2.38,1.94
			c-0.38,0.52-1.38,1.91-2.68,3.91C298.08,130.62,291.37,133.17,284.41,133.17L284.41,133.17z"/>
		<path class="st2" d="M371.03,223.3c-27.1,0.1-49.14-21.79-49.24-48.88c-0.1-27.1,21.79-49.14,48.88-49.24
			c2.08-0.01,4.16,0.12,6.22,0.37c26.89,3.27,46.04,27.73,42.77,54.62C416.67,204.76,395.81,223.27,371.03,223.3z"/>
		<path class="st3" d="M414.5,140.15c-9.02-11.57-22.29-19.06-36.85-20.78c-2.23-0.27-4.47-0.41-6.72-0.41l0,0
			c-30.53,0.03-55.26,24.81-55.23,55.34c0.02,19.71,10.53,37.92,27.6,47.79c-7.49,2.71-11.96,6.15-13.79,10.5
			c-1.48,3.11-0.16,6.83,2.95,8.31c3.11,1.48,6.83,0.16,8.31-2.95c0.08-0.17,0.15-0.34,0.21-0.51c0,0,2.2-3.77,19.45-6.91
			c2.46-0.45,4.9-0.82,7.17-1.13c1.15,0.07,2.3,0.11,3.44,0.11c30.53-0.03,55.26-24.8,55.23-55.34
			c-0.01-12.34-4.15-24.33-11.77-34.05L414.5,140.15L414.5,140.15z M413.49,179.4c-2.16,17.84-15.23,32.43-32.73,36.54
			c-0.64-0.17-1.31-0.24-1.97-0.2c-0.29,0-5.06,0.32-11.48,1.14c-0.49-0.04-0.99-0.07-1.47-0.13
			c-23.48-2.84-40.21-24.18-37.37-47.66s24.18-40.21,47.66-37.37s40.21,24.18,37.37,47.66C413.5,179.39,413.5,179.4,413.49,179.4
			L413.49,179.4z"/>
		<path class="st2" d="M283.12,334.1c-1.67,0-3.34-0.1-5-0.3c-22.55-2.71-38.63-23.18-35.93-45.73
			c2.48-20.67,20.02-36.22,40.84-36.22c1.67,0,3.34,0.1,5,0.3c22.55,2.71,38.63,23.18,35.93,45.73
			C321.48,318.55,303.94,334.11,283.12,334.1z"/>
		<path class="st3" d="M288.78,245.96c-1.91-0.23-3.83-0.34-5.75-0.34l0,0c-26.16,0.06-47.31,21.31-47.26,47.46
			c0.05,23.89,17.89,44,41.6,46.91c1.91,0.23,3.83,0.34,5.75,0.34c26.16-0.06,47.31-21.31,47.26-47.46
			C330.33,268.98,312.49,248.87,288.78,245.96z M317.72,297.18c-2.32,19.14-19.72,32.78-38.86,30.46s-32.78-19.72-30.46-38.86
			s19.72-32.78,38.86-30.46c0.01,0,0.02,0,0.02,0C306.42,260.65,320.04,278.04,317.72,297.18L317.72,297.18z"/>
		<path class="st2" d="M168.86,394.56c-1.45,0-2.89-0.09-4.33-0.26c-19.52-2.36-33.43-20.09-31.07-39.6
			c2.36-19.52,20.09-33.43,39.6-31.07c19.52,2.36,33.43,20.09,31.07,39.6C201.99,381.09,186.85,394.53,168.86,394.56z"/>
		<path class="st3" d="M227.94,344.26c-0.93-3.31-4.36-5.25-7.68-4.33c-2.41,0.67-5.73,2.32-11.18,7.87
			c-4.44-15.92-17.83-27.74-34.18-30.17c8.06-7.45,11.73-14.81,11-21.91c-0.37-3.42-3.45-5.89-6.87-5.52
			c-3.42,0.37-5.89,3.45-5.52,6.87c0.73,6.5-12.31,16.72-21.33,21.57c-1.37,0.72-2.41,1.93-2.93,3.39
			c-20.4,10.8-28.18,36.08-17.39,56.48c10.8,20.4,36.08,28.18,56.48,17.39c11.56-6.12,19.59-17.3,21.7-30.21
			c6.07-7.67,11.2-13.01,13.56-13.75c3.32-0.91,5.27-4.34,4.35-7.66C227.94,344.27,227.94,344.26,227.94,344.26z M165.23,388.1
			c-16.07-1.98-27.5-16.62-25.51-32.7s16.62-27.5,32.7-25.51c15.4,1.9,26.65,15.46,25.68,30.94c-0.4,0.51-0.79,1.03-1.2,1.57
			c-6.99,9.31-12.64,18.13-12.87,18.5c-0.71,1.1-1.05,2.41-0.97,3.72c-4.36,2.42-9.27,3.68-14.25,3.67
			C167.61,388.29,166.41,388.23,165.23,388.1L165.23,388.1z"/>
		<path class="st2" d="M168.18,275.27c-2.51,0-5.02-0.15-7.51-0.45c-33.85-4.1-57.98-34.86-53.88-68.71
			c3.75-30.99,30.04-54.3,61.25-54.33c2.51,0,5.02,0.15,7.51,0.45c33.85,4.1,57.98,34.86,53.88,68.71
			C225.68,251.93,199.4,275.24,168.18,275.27z"/>
		<path class="st3" d="M261.22,185.94c-2.43-2.42-6.37-2.42-8.8,0c-1,1-2.39,1.49-3.79,1.36c-8.99-0.23-24.3-13.45-31.84-21.72
			c-0.59-0.64-1.31-1.16-2.1-1.51c-12.62-11.87-29.3-18.49-46.63-18.5l0,0c-37.55,0.03-67.96,30.49-67.93,68.04
			s30.49,67.96,68.04,67.93s67.96-30.49,67.93-68.04c0-6.21-0.86-12.38-2.54-18.35c4.9,2.65,9.98,4.49,14.75,4.62h0.53
			c4.63,0.08,9.09-1.72,12.37-4.99c2.44-2.42,2.46-6.37,0.04-8.81C261.23,185.96,261.22,185.95,261.22,185.94z M223.23,220.21
			c-3.38,27.84-26.99,48.79-55.03,48.83c-2.26,0-4.52-0.14-6.76-0.41c-30.44-3.69-52.12-31.35-48.43-61.79
			C116.39,179,140,158.04,168.04,158c2.26,0,4.51,0.14,6.75,0.41c30.43,3.68,52.12,31.33,48.44,61.77
			C223.24,220.19,223.23,220.2,223.23,220.21z"/>
		<path class="st1" d="M320.67,367.12c6.17,10.6,2.57,24.19-8.03,30.36c-4.18,2.43-9.04,3.43-13.84,2.85
			c-0.62-0.08-1.22-0.18-1.82-0.31c6.17,10.6,19.75,14.19,30.35,8.02s14.19-19.76,8.02-30.35
			C332.19,372.24,326.85,368.4,320.67,367.12L320.67,367.12z"/>
		<path class="st1" d="M388.05,134.97c15.85,17.54,14.49,44.62-3.06,60.47c-12.46,11.26-30.36,14.2-45.77,7.5
			c15.85,17.54,42.93,18.91,60.47,3.06s18.91-42.93,3.06-60.47C398.66,141,393.65,137.4,388.05,134.97z"/>
		<path class="st1" d="M295.39,260.33c12.19,14.91,9.99,36.89-4.92,49.08c-7.36,6.02-16.86,8.77-26.29,7.62
			c-2.77-0.34-5.49-1.01-8.11-1.99c12.19,14.92,34.17,17.14,49.09,4.95s17.14-34.17,4.95-49.09
			C306.22,266.15,301.15,262.5,295.39,260.33L295.39,260.33z"/>
		<path class="st1" d="M177.78,331.04c9.61,13.04,6.82,31.4-6.22,41c-7.58,5.59-17.39,7.19-26.35,4.31
			c9.61,13.04,27.96,15.82,41,6.22c13.04-9.61,15.82-27.96,6.22-41C188.77,336.61,183.65,332.93,177.78,331.04z"/>
		<path class="st1" d="M192.71,163.75c21.65,21.7,21.62,56.84-0.08,78.5c-16.83,16.79-42.49,21-63.8,10.47
			c21.65,21.7,56.8,21.74,78.5,0.08c21.7-21.65,21.74-56.8,0.08-78.5C203.11,170.01,198.15,166.44,192.71,163.75z"/>
		<path class="st2" d="M401.95,323.53c-12.44,0.06-22.57-9.97-22.64-22.4c-0.06-12.44,9.97-22.57,22.4-22.64
			c0.98-0.01,1.95,0.05,2.92,0.18c12.35,1.49,21.15,12.7,19.66,25.04C422.94,315.02,413.34,323.53,401.95,323.53z"/>
		<path class="st1" d="M406.42,279.28c6.17,10.6,2.58,24.19-8.02,30.35c-4.18,2.43-9.04,3.43-13.84,2.85
			c-0.62-0.07-1.22-0.18-1.83-0.3c6.17,10.6,19.75,14.19,30.35,8.02s14.19-19.75,8.02-30.35
			C417.94,284.4,412.6,280.56,406.42,279.28L406.42,279.28z"/>
		<path class="st2" d="M284.41,133.09c-15.72,0.02-28.48-12.71-28.5-28.43s12.71-28.48,28.43-28.5s28.48,12.71,28.5,28.43
			c0,1.16-0.07,2.32-0.21,3.47C310.78,122.26,298.74,132.94,284.41,133.09z"/>
		<path class="st1" d="M292.84,77.36c9.22,12.78,6.33,30.62-6.45,39.84c-5.82,4.2-13.02,6.05-20.15,5.18
			c-1.7-0.21-3.38-0.58-5.02-1.09c9.22,12.79,27.05,15.68,39.84,6.47c12.79-9.22,15.68-27.05,6.47-39.84
			C303.9,82.91,298.75,79.2,292.84,77.36z"/>
	</g>
	
		<animateTransform  accumulate="none" additive="sum" attributeName="transform" attributeType="xml" calcMode="linear" dur="60s" fill="remove" from="0 250 250" repeatCount="indefinite" restart="always" to="360 250 250" type="rotate">
		</animateTransform>
</g>
<g id="not-line">
	<path class="st0" d="M405.7,78.7L79.36,405.05c4.95,5.45,10.2,10.69,15.66,15.66L421.36,94.36C416.4,88.9,411.15,83.66,405.7,78.7z
		"/>
</g>
</svg>
